<svg width="1486" height="665" viewBox="0 0 1486 665" fill="none" xmlns="http://www.w3.org/2000/svg">
<g id="Line 3">
<g id="Capa 1">
<path id="Vector" d="M1473.64 452.238C1376.71 462.517 1308.3 495.212 1263.47 523.517C1218.14 552.14 1185.49 583.54 1125.83 600.422C1060.03 619.179 1017.03 610.776 1000.03 606.049C976.45 599.484 977.915 595.02 939.345 579.789C865.254 550.527 851.179 563.545 817.982 544.15C762.939 512 779.353 463.211 721.779 409.096C680.086 369.893 611.057 338.7 548.615 360.327C489.813 380.698 483.197 431.849 421.331 439.108C395.919 442.091 374.784 435.469 332.529 422.227C278.374 405.345 242.009 384.524 227.446 377.209C184.303 355.506 114.667 341.851 0.999768 384.712" stroke="#112C2D" stroke-opacity="0.67" stroke-width="5" stroke-miterlimit="10"/>
<path id="Vector_2" d="M1474.29 435.694C1380.53 444.566 1310.44 474.166 1261.54 503.502C1221.81 527.662 1191.51 554.147 1149.76 573.074C1140.63 577.2 1131.01 581.195 1120.65 584.647C1055.37 606.368 1012.53 602.785 994.655 600.591C970.678 597.664 970.678 594.326 932.878 579.526C906.237 569.116 887.263 563.17 872.566 559.268C847.583 552.647 835.077 552.197 815.362 539.46C808.007 534.747 801.104 528.975 794.79 522.26C765.589 491.216 766.832 451.863 718.39 410.147C676.224 373.832 607.654 346.371 546.276 367.849C541.414 369.554 536.622 371.57 531.92 373.888C484.47 397.316 473.814 438.527 419.437 444.998C413.707 445.69 407.947 445.897 402.195 445.617C382.865 444.754 362.885 438.639 331.241 428.735C278.818 412.229 243.016 391.802 226.958 383.717C215.196 377.851 203.066 373.245 190.697 369.949C147.894 358.395 87.3901 357.194 2.27297 386.681" stroke="#112C2D" stroke-opacity="0.67" stroke-width="5" stroke-miterlimit="10"/>
<path id="Vector_3" d="M1474.94 417.687C1384.36 425.19 1312.51 451.45 1259.6 482.175C1217.58 506.56 1185.88 534.414 1144.89 554.297C1135.54 558.855 1125.85 563.47 1115.44 567.428C1050.67 592.131 1008.06 595.114 989.238 593.688C964.98 591.812 963.367 592.169 926.395 577.819C900.509 567.746 881.609 560.937 867.194 556.154C842.906 548.145 831.229 546.532 812.787 533.308C805.76 528.215 799.156 522.239 793.073 515.469C764.864 484.632 763.472 447.643 714.972 409.678C672.332 376.271 604.22 352.543 543.909 373.87C538.802 375.745 534.081 377.621 529.656 379.872C480.711 403.732 469.877 443.028 417.498 449.275C411.814 449.984 406.098 450.216 400.389 449.969C380.734 449.237 360.783 443.291 329.91 433.481C279.203 417.424 243.993 397.335 226.425 388.669C214.758 382.856 202.741 378.239 190.49 374.864C148.072 363.047 87.8491 360.552 3.57568 387.112" stroke="#112C2D" stroke-opacity="0.67" stroke-width="5" stroke-miterlimit="10"/>
<path id="Vector_4" d="M1475.58 398.461C1388.18 404.52 1314.61 427.685 1257.64 459.536C1213.39 484.295 1180.24 513.426 1140.05 534.284C1130.46 539.273 1120.68 544.488 1110.26 548.971C1046.01 576.619 1003.7 582.415 983.85 585.567C959.297 589.449 956.085 588.793 919.928 574.894C894.767 565.196 875.941 557.506 861.732 551.841C838.155 542.462 827.277 539.648 810.109 525.956C803.464 520.475 797.196 514.294 791.371 507.48C764.153 476.867 760.039 442.26 711.597 408.065C668.424 377.566 600.831 357.551 541.585 378.747C536.523 380.623 531.832 382.499 527.436 384.693C477.026 409.078 465.97 446.387 415.619 452.595C409.974 453.322 404.299 453.579 398.628 453.364C378.647 452.783 358.667 446.968 328.607 437.346C279.648 421.758 245 402.025 225.937 392.628C214.34 386.903 202.422 382.282 190.283 378.804C148.25 366.724 88.308 362.916 4.893 386.569" stroke="#112C2D" stroke-opacity="0.67" stroke-width="5" stroke-miterlimit="10"/>
<path id="Vector_5" d="M1476.23 379.199C1392 383.85 1316.74 403.883 1255.7 436.878C1209.2 462.031 1174.61 492.456 1135.2 514.252C1125.39 519.673 1115.53 525.506 1105.06 530.496C1041.33 561.033 999.405 571.425 978.448 577.389C953.686 584.442 948.847 585.361 913.444 571.912C888.949 562.534 870.286 554.018 856.315 547.528C833.448 536.798 823.384 532.747 807.473 518.604C801.224 512.748 795.29 506.369 789.713 499.509C763.472 469.159 756.634 436.915 708.237 406.378C664.531 378.805 597.47 362.486 539.275 383.531C534.273 385.407 529.611 387.283 525.23 389.44C473.34 414.331 462.091 449.464 413.753 455.748C408.148 456.465 402.513 456.747 396.881 456.592C376.604 456.141 356.683 450.477 327.319 441.042C280.076 425.886 246.005 406.491 225.448 396.418C213.934 390.749 202.118 386.116 190.09 382.556C148.426 370.195 88.766 365.112 6.19462 385.82" stroke="#112C2D" stroke-opacity="0.67" stroke-width="5" stroke-miterlimit="10"/>
<path id="Vector_6" d="M1476.85 366.78C1395.79 370.025 1318.83 386.907 1253.74 421.045C1205 446.612 1168.96 478.387 1130.31 501.046C1120.29 506.917 1110.33 513.294 1099.84 518.846C1036.66 552.272 995.069 567.165 973.06 576.075C948.077 586.167 941.521 588.812 906.977 575.794C887.9 568.579 869.175 559.948 850.898 549.946C828.697 537.885 819.477 532.558 804.869 518.059C798.49 511.7 793.428 504.928 787.952 498.345C762.688 468.333 753.112 438.321 704.803 411.535C660.52 386.907 594.022 374.264 536.893 395.16C531.934 397.036 527.302 398.911 522.951 401.031C469.566 426.372 458.125 459.648 411.8 465.744C406.239 466.464 400.649 466.764 395.06 466.644C374.458 466.288 354.567 460.83 326.002 451.639C280.491 436.97 246.982 417.875 224.945 407.127C213.504 401.518 201.78 396.881 189.853 393.247C148.575 380.604 89.2103 374.208 7.48248 392.009" stroke="#112C2D" stroke-opacity="0.67" stroke-width="5" stroke-miterlimit="10"/>
<path id="Vector_7" d="M1477.53 357.925C1399.65 359.801 1320.99 373.55 1251.83 408.795C1200.85 434.774 1163.39 467.938 1125.49 491.328C1115.25 497.668 1105.21 504.608 1094.68 510.686C1031.97 546.944 990.703 566.32 967.659 578.212C942.498 591.249 934.239 595.713 900.494 583.146C881.586 576.103 863.187 567.029 845.496 556.022C824.021 542.667 815.584 536.027 802.249 521.021C796.329 514.4 791.667 507.347 786.235 500.688C761.933 470.864 749.604 443.44 701.414 420.2C656.525 398.554 590.604 389.55 534.54 410.315C529.641 412.191 525.053 414.066 520.701 416.148C465.821 441.884 454.144 473.246 409.891 479.117C404.37 479.855 398.82 480.181 393.27 480.092C372.372 479.867 352.48 474.578 324.7 465.499C280.92 451.262 247.989 432.524 224.442 421.063C213.08 415.525 201.459 410.883 189.646 407.164C148.738 394.24 89.6545 386.53 8.77029 401.443" stroke="#112C2D" stroke-opacity="0.67" stroke-width="5" stroke-miterlimit="10"/>
<path id="Vector_8" d="M1478.17 348.942C1403.47 349.374 1323.13 360.066 1249.87 396.417C1196.68 422.828 1157.81 457.417 1120.65 481.651C1110.19 488.498 1100.05 496.001 1089.48 502.566C1027.27 541.619 986.307 565.403 962.271 580.409C936.77 596.315 926.958 602.655 894.027 590.538C875.256 583.569 857.16 573.955 840.079 561.877C819.359 547.265 811.692 539.236 799.615 523.855C794.198 516.953 789.906 509.675 784.533 502.885C761.178 473.379 746.052 448.394 698.01 428.736C652.499 410.11 587.2 404.727 532.246 425.323C527.391 427.198 522.833 429.074 518.511 431.137C462.136 457.398 450.326 486.791 408.026 492.624C402.55 493.363 397.045 493.714 391.538 493.675C370.315 493.675 350.452 488.46 323.457 479.532C281.394 465.782 249.055 447.344 223.998 435.227C212.715 429.736 201.191 425.076 189.483 421.271C148.96 408.141 90.1579 399.118 10.1321 411.067" stroke="#112C2D" stroke-opacity="0.67" stroke-width="5" stroke-miterlimit="10"/>
<path id="Vector_9" d="M1478.82 339.921C1407.29 338.945 1325.27 346.542 1247.93 384.001C1192.51 410.843 1152.23 446.876 1115.8 471.842C1105.14 479.138 1094.88 487.148 1084.3 494.351C1022.58 536.198 981.882 564.391 956.87 582.511C931.058 601.268 919.676 609.521 887.544 597.854C868.916 590.965 851.123 580.867 834.663 567.842C814.579 551.955 807.815 542.538 796.996 526.782C792.067 519.579 788.115 512.114 782.817 505.192C760.409 475.987 742.515 453.497 694.621 437.366C648.459 421.816 583.796 419.977 529.863 440.442C525.053 442.318 520.524 444.193 516.232 446.2C458.348 472.855 446.374 500.372 406.073 506.093C400.636 506.833 395.172 507.209 389.703 507.218C368.169 507.387 348.262 502.285 322.08 493.544C281.764 480.245 249.988 462.125 223.436 449.333C212.235 443.88 200.813 439.19 189.217 435.283C149.064 421.816 90.5431 411.555 11.3609 420.578" stroke="#112C2D" stroke-opacity="0.67" stroke-width="5" stroke-miterlimit="10"/>
<path id="Vector_10" d="M1479.47 330.935C1411.11 328.609 1327.37 333.13 1245.96 371.676C1188.24 398.968 1146.65 436.464 1110.91 462.124C1100.05 469.927 1089.69 478.443 1079.08 486.171C1017.86 530.758 977.412 563.339 951.437 584.667C925.255 606.181 912.349 616.423 881.031 605.206C862.533 598.341 845.037 587.711 829.23 573.731C809.842 556.624 803.921 545.745 794.36 529.632C789.92 522.129 786.353 514.495 781.04 507.423C759.55 478.537 738.859 458.654 691.142 445.937C644.329 433.5 580.317 435.17 527.435 455.484C522.684 457.36 518.185 459.236 513.908 461.111C454.528 488.178 442.377 513.82 404.103 519.391C398.698 520.17 393.263 520.571 387.823 520.591C365.978 520.779 346.145 515.958 320.674 507.461C282.089 494.612 250.89 476.811 222.828 463.344C212.69 458.467 201.456 453.646 188.891 449.332C149.122 435.601 90.8826 424.028 12.5589 430.143" stroke="#112C2D" stroke-opacity="0.67" stroke-width="5" stroke-miterlimit="10"/>
<path id="Vector_11" d="M1480.12 322.214C1415 318.462 1329.56 319.888 1244.06 359.504C1184.17 387.246 1141.15 426.242 1106.09 452.578C1095.03 460.887 1084.55 469.891 1073.91 478.182C1013.14 525.507 972.912 562.459 946.079 586.975C919.527 611.359 905.112 623.477 874.593 612.71C856.203 605.863 838.985 594.717 823.828 579.847C805.106 561.502 800.147 549.141 791.756 532.71C787.804 524.906 784.592 517.085 779.397 509.882C758.825 481.352 735.351 463.964 687.827 454.735C640.303 445.506 576.987 450.608 525.171 470.773C520.464 472.648 515.995 474.524 511.747 476.4C450.858 503.879 438.529 527.645 402.224 533.085C396.874 533.877 391.493 534.297 386.106 534.341C363.906 534.698 344.132 530.008 319.505 521.624C282.637 509.244 252.03 491.743 222.458 477.619C212.364 472.78 201.22 467.978 188.802 463.57C149.418 449.577 91.4599 436.709 13.9799 439.879" stroke="#112C2D" stroke-opacity="0.67" stroke-width="5" stroke-miterlimit="10"/>
<path id="Vector_12" d="M1480.76 313.604C1418.76 308.408 1331.7 306.813 1242.1 347.479C1179.94 375.616 1135.63 416.207 1101.25 443.142C1089.98 451.977 1079.39 461.45 1068.69 470.303C1008.39 520.385 968.369 561.652 940.692 589.469C913.711 616.517 897.771 630.735 868.17 620.4C848.515 613.535 830.666 599.335 818.456 586.149C800.384 566.604 796.255 552.723 789.166 535.973C785.732 527.87 782.861 519.86 777.74 512.507C758.07 484.371 731.859 469.572 684.497 463.738C636.352 457.754 573.642 466.233 522.892 486.247C518.244 488.123 513.804 489.998 509.571 491.874C447.188 519.785 434.696 541.675 400.433 546.965C395.123 547.769 389.782 548.213 384.434 548.296C361.952 548.84 342.179 544.264 318.247 536.048C283.111 524.118 253.125 506.936 222.044 492.137C211.995 487.354 200.939 482.533 188.684 478.069C149.67 463.794 91.993 449.632 15.3713 449.932" stroke="#112C2D" stroke-opacity="0.67" stroke-width="5" stroke-miterlimit="10"/>
<path id="Vector_13" d="M1481.41 305.106C1422.58 298.485 1333.91 294.077 1240.16 335.587C1175.89 364.399 1130.12 406.303 1096.39 433.895C1084.95 443.274 1074.19 453.196 1063.52 462.612C1003.64 515.34 963.811 561.07 935.29 592.039C907.865 621.825 890.563 638.032 861.643 628.165C842.684 621.638 824.924 606.688 812.995 592.526C795.575 571.781 792.437 556.4 786.502 539.312C783.542 530.908 781.041 522.749 775.979 515.246C757.212 487.41 728.218 475.33 681.034 472.723C632.193 470.04 570.164 481.839 520.479 501.722C515.872 503.585 511.466 505.461 507.263 507.349C443.355 535.635 430.7 555.687 398.45 560.826C393.185 561.652 387.889 562.122 382.584 562.233C359.792 562.927 340.018 558.482 316.856 550.453C283.466 538.993 254.028 522.036 221.423 506.636C211.418 501.872 200.465 497.089 188.344 492.549C149.715 477.994 92.3188 462.537 16.5407 459.874" stroke="#112C2D" stroke-opacity="0.67" stroke-width="5" stroke-miterlimit="10"/>
<path id="Vector_14" d="M1482.06 296.74C1426.41 288.73 1336.04 281.227 1238.22 323.825C1171.71 353.068 1124.6 396.586 1091.54 424.722C1079.92 434.607 1069.04 445.017 1058.33 454.996C998.872 510.406 959.163 560.525 929.902 594.758C902.003 627.302 883.281 645.572 855.234 636.137C836.956 629.965 819.269 614.247 807.651 599.072C790.852 577.126 788.706 560.207 783.97 542.8C781.573 534.077 779.338 525.749 774.365 518.115C756.382 490.654 724.621 479.4 677.629 481.932C628.226 484.595 566.745 497.669 518.111 517.402C513.552 519.265 509.181 521.141 504.998 523.029C439.55 551.578 426.763 569.923 396.525 574.912C391.3 575.745 386.043 576.233 380.778 576.375C357.674 577.201 337.857 572.924 315.538 565.121C283.939 554.017 255.019 537.266 220.919 521.304C210.958 516.577 200.095 511.794 188.136 507.179C149.877 492.342 92.7622 475.592 17.8426 470.002" stroke="#112C2D" stroke-opacity="0.67" stroke-width="5" stroke-miterlimit="10"/>
<path id="Vector_15" d="M1482.77 288.469C1430.29 279.09 1338.23 268.455 1236.34 312.159C1167.6 341.834 1119.23 386.945 1086.76 415.719C1074.92 426.148 1063.92 436.99 1053.2 447.607C994.151 505.755 954.664 560.151 924.56 597.666C896.128 632.93 875.955 653.151 848.693 644.185C831.11 638.37 813.497 621.901 802.175 605.713C785.998 582.604 784.888 564.147 781.262 546.44C779.397 537.399 777.459 528.92 772.56 521.117C755.539 494.031 721.143 487.354 674.241 491.255C624.186 495.363 563.356 513.614 515.787 533.197C511.347 535.073 506.907 536.948 502.778 538.824C435.836 567.804 422.856 584.292 394.631 589.113C389.451 589.968 384.239 590.481 379.017 590.651C355.603 591.626 335.859 587.481 314.25 579.828C284.309 569.267 256.026 552.93 220.431 536.198C210.5 531.509 199.71 526.819 187.87 522.036C149.996 507.03 93.1473 488.892 19.1453 480.376" stroke="#112C2D" stroke-opacity="0.67" stroke-width="5" stroke-miterlimit="10"/>
<path id="Vector_16" d="M1483.35 280.289C1434.05 269.466 1340.32 255.773 1234.33 300.566C1163.29 330.672 1113.71 377.472 1081.89 406.752C1069.93 417.744 1058.71 428.998 1048 440.14C989.253 500.764 950.017 559.812 919.232 600.554C890.342 638.65 868.837 660.821 842.27 652.268C825.383 646.809 807.815 629.59 796.804 612.408C781.234 588.024 781.189 568.141 778.673 550.096C777.385 540.717 775.713 532.108 770.903 524.155C754.741 497.444 717.621 493.617 670.897 500.614C620.235 508.117 559.982 529.594 513.494 549.046C509.054 550.921 504.718 552.797 500.588 554.523C432.137 583.934 419.009 598.622 392.782 603.292C387.606 604.135 382.4 604.636 377.183 604.793C355.47 605.829 333.771 602.344 312.949 594.476C284.739 584.366 257.033 568.347 219.928 550.94C210.042 546.307 199.356 541.561 187.708 536.76C133.253 514.676 77.2619 499.218 20.4931 490.598" stroke="#112C2D" stroke-opacity="0.67" stroke-width="5" stroke-miterlimit="10"/>
<path id="Vector_17" d="M1484 272.167C1437.87 259.938 1342.45 243.15 1232.39 289.049C1159.18 319.586 1108.28 367.962 1076.99 397.842C938.117 530.588 894.16 678.847 835.743 660.446C819.551 655.344 802.027 637.374 791.341 619.18C768.519 580.352 782.905 550.903 769.141 527.268C735.396 469.308 583.603 534.04 498.294 570.41C415.115 605.881 412.037 617.304 375.45 619.18C311.587 622.5 278.389 589.993 187.485 551.653C133.436 528.967 77.9894 512.026 21.7208 501.008" stroke="#112C2D" stroke-opacity="0.67" stroke-width="5" stroke-miterlimit="10"/>
<path id="Vector_18" d="M1484 266.802C1436.64 253.428 1344.18 238.103 1238.96 282.033C1166.34 312.439 1117.6 361.283 1084.02 392.702C949.868 518.058 908.028 653.824 848.515 641.707C825.264 636.98 801.657 627.508 786.072 612.989C755.45 584.441 766.832 558.912 749.071 536.084C710.191 486.077 568.61 542.218 487.386 575.587C408.263 608.206 405.066 617.435 366.392 615.559C302.129 612.445 270.441 583.672 184.806 546.869C131.378 523.921 76.3642 507.398 20.4923 497.519" stroke="#112C2D" stroke-opacity="0.67" stroke-width="5" stroke-miterlimit="10"/>
<path id="Vector_19" d="M1484 261.211C1405.02 238.168 1322.57 242.87 1245.54 274.81C1173.5 305.066 1127.01 354.417 1091.05 387.355C961.798 505.639 921.333 630.939 861.273 622.761C830.799 618.597 802.146 617.546 780.804 606.573C744.187 587.816 751.321 566.995 729.002 544.674C686.362 502.075 553.618 550.188 476.463 580.556C401.529 610.325 398.199 617.546 357.32 611.731C292.82 602.578 262.494 576.955 182.128 541.86C129.336 518.665 74.7687 502.558 19.3232 493.803" stroke="#112C2D" stroke-opacity="0.67" stroke-width="5" stroke-miterlimit="10"/>
<path id="Vector_20" d="M1484 251.27C1407.32 227.95 1327.03 232.094 1252.09 263.237C1180.67 293.362 1136.41 343.219 1098.08 377.658C973.993 489.114 934.21 590.704 874.046 599.464C836.409 604.941 803.123 602.69 775.52 595.825C733.812 585.471 736.239 570.709 708.918 548.932C663.688 512.88 538.595 553.621 465.555 581.176C394.691 607.905 391.39 613.476 348.262 603.572C283.554 588.716 254.561 565.926 179.434 532.519C127.272 509.05 73.1335 493.351 18.1093 485.738" stroke="#112C2D" stroke-opacity="0.67" stroke-width="5" stroke-miterlimit="10"/>
<path id="Vector_21" d="M1484 236.135C1409.62 212.552 1331.49 216.155 1258.66 246.527C1187.83 276.539 1145.83 326.902 1105.11 362.823C986.277 467.658 946.908 559.551 886.804 571.03C842.151 579.546 802.723 592.564 770.251 579.94C725.568 562.571 723.896 561.37 688.849 548.052C646.682 507.518 523.587 551.973 454.632 576.657C387.883 600.479 384.597 604.418 339.189 590.257C274.319 570.017 246.642 549.684 176.755 518.041C125.221 494.305 71.5041 479.019 16.9106 472.554" stroke="#112C2D" stroke-opacity="0.67" stroke-width="5" stroke-miterlimit="10"/>
<path id="Vector_22" d="M1484 220.64C1411.93 196.777 1335.96 199.787 1265.21 229.306C1194.96 259.168 1155.22 310.094 1112.11 347.478C998.651 445.879 959.726 528.918 899.636 542.086C847.835 553.415 804.736 571.385 764.952 563.526C713.654 553.397 709.11 557.373 668.75 546.644C624.511 510.573 508.595 549.964 443.784 571.629C381.148 592.543 377.863 595.038 330.191 576.431C265.069 551.071 238.798 532.895 174.135 503.052C123.228 479.049 69.925 464.174 15.771 458.859" stroke="#112C2D" stroke-opacity="0.67" stroke-width="5" stroke-miterlimit="10"/>
<path id="Vector_23" d="M1484 204.848C1414.26 180.754 1340.46 183.2 1271.81 211.882C1202.16 241.612 1164.71 293.101 1119.17 331.929C1011.13 424.047 972.646 498.683 912.335 512.938C853.533 526.838 805.979 538.242 759.713 546.927C702.584 557.656 694.384 553.211 648.71 545.051C602.326 513.332 493.602 547.677 432.802 566.397C374.281 584.404 370.995 585.567 321.059 562.402C255.819 532.127 230.85 515.827 171.456 487.841C121.172 463.579 68.2767 449.115 14.5723 444.943" stroke="#112C2D" stroke-opacity="0.67" stroke-width="5" stroke-miterlimit="10"/>
<path id="Vector_24" d="M1484 188.849C1428.9 168.647 1354.5 161.838 1278.36 194.232C1209.26 223.644 1174.17 275.921 1126.2 316.155C1023.68 402.139 985.597 468.653 925.107 483.565C859.157 499.809 806.704 515.697 754.429 530.102C691.824 547.378 678.207 559.439 628.626 543.233C577.254 526.445 478.609 545.108 421.894 560.94C367.488 576.058 364.172 575.945 312.001 548.166C246.435 513.146 222.962 498.496 168.704 472.423C134.973 456.217 84.0896 435.021 13.2993 430.819" stroke="#112C2D" stroke-opacity="0.67" stroke-width="5" stroke-miterlimit="10"/>
<path id="Vector_25" d="M1484 172.566C1427.61 151.258 1356.23 145.874 1284.93 176.318C1216.42 205.579 1183.66 258.531 1133.23 300.117C1036.3 380.079 998.769 438.659 937.865 453.927C864.751 472.272 807.296 492.774 749.16 513.013C680.916 536.779 663.88 554.861 608.557 541.149C555.823 528.019 463.631 542.425 410.971 555.217C360.65 567.447 357.216 566.322 302.928 533.646C237.037 494.012 215.103 480.826 166.025 456.741C132.783 440.422 82.6541 419.226 12.1006 416.413" stroke="#112C2D" stroke-opacity="0.67" stroke-width="5" stroke-miterlimit="10"/>
<path id="Vector_26" d="M1484 156.095C1426.28 133.586 1357.96 129.722 1291.51 158.196C1223.59 187.307 1193.17 240.953 1140.26 283.87C1048.97 357.925 1011.94 408.645 950.638 424.082C870.287 444.321 807.814 469.588 743.891 495.717C669.889 525.954 649.539 549.644 588.487 538.859C534.318 529.293 448.653 539.44 400.063 549.288C353.916 558.667 350.26 556.51 293.87 518.92C227.565 474.746 207.258 462.891 163.346 440.851C130.578 424.401 81.233 403.13 10.9016 401.817" stroke="#112C2D" stroke-opacity="0.67" stroke-width="5" stroke-miterlimit="10"/>
<path id="Vector_27" d="M1484 139.383C1425.05 115.805 1359.68 113.348 1298.08 139.852C1230.75 168.832 1202.72 223.229 1147.29 267.403C1061.7 335.642 1026.18 387.656 963.396 394.015C874.386 403.037 808.288 446.161 738.622 478.198C658.804 514.888 632.06 562.607 568.418 536.346C515.255 514.344 433.734 536.346 389.141 543.137C347.137 549.608 343.259 546.55 284.798 503.99C218.033 455.352 199.444 444.66 160.667 424.74C128.387 408.139 79.7975 386.85 9.70285 386.981" stroke="#112C2D" stroke-opacity="0.67" stroke-width="5" stroke-miterlimit="10"/>
<path id="Vector_28" d="M1484 122.127C1423.76 97.4052 1361.41 96.4673 1304.63 120.852C1237.91 149.701 1212.29 204.923 1154.32 250.278C1074.4 312.797 1039.37 355.639 976.169 363.292C879.966 374.978 808.702 422.059 733.339 460.024C647.644 503.166 618.828 554.017 548.334 533.178C492.418 516.634 418.712 532.465 378.233 536.329C340.359 539.949 336.14 536.01 275.74 488.385C208.443 435.339 191.629 425.716 157.973 407.972C126.197 391.203 78.3619 369.932 8.4892 371.507" stroke="#112C2D" stroke-opacity="0.67" stroke-width="5" stroke-miterlimit="10"/>
<path id="Vector_29" d="M1484 103.781C1422.49 77.914 1363.15 78.4205 1311.21 100.967C1245.08 129.685 1221.91 185.807 1161.35 232.269C1087.26 289.123 1052.57 322.736 988.927 331.683C885.501 346.22 809.087 397.053 728.07 440.945C636.426 490.596 605.226 543.511 528.264 529.105C469.744 518.151 403.763 527.792 367.31 528.636C333.595 529.424 328.992 524.622 266.667 471.895C198.807 414.478 183.785 405.813 155.294 390.3C124.021 373.306 76.8521 352.11 7.29025 355.13" stroke="#112C2D" stroke-opacity="0.67" stroke-width="5" stroke-miterlimit="10"/>
<path id="Vector_30" d="M1484 85.1175C1421.2 58.1069 1364.89 60.0951 1317.78 80.6533C1252.24 109.258 1231.58 166.393 1168.38 213.831C1100.08 265.114 1065.81 289.442 1001.7 299.646C891.111 317.241 809.442 371.637 722.801 421.457C625.118 477.598 591.284 531.807 508.195 524.623C447.217 519.352 388.8 522.747 356.402 520.515C326.861 518.508 321.799 512.881 257.609 454.976C189.098 393.208 176.089 385.33 152.615 372.2C121.875 354.924 75.5054 333.841 6.09155 338.324" stroke="#112C2D" stroke-opacity="0.67" stroke-width="5" stroke-miterlimit="10"/>
<path id="Vector_31" d="M1484 64.804C1419.91 36.6679 1366.66 40.2318 1324.35 58.7079C1259.45 87.3692 1241.32 145.498 1175.41 193.761C1112.92 239.529 1079.08 254.535 1014.46 265.977C896.765 286.817 809.768 344.571 717.591 400.337C613.988 462.968 576.706 509.955 488.185 518.509C425.106 524.586 373.911 516.07 345.539 510.762C320.126 505.997 314.606 499.507 248.596 436.445C179.419 370.306 168.407 363.291 149.996 352.505C119.833 334.817 74.1289 313.978 4.95189 319.905" stroke="#112C2D" stroke-opacity="0.67" stroke-width="5" stroke-miterlimit="10"/>
<path id="Vector_32" d="M1484 44.6968C1418.64 15.4165 1368.39 20.4434 1330.9 36.95C1266.61 65.48 1251.15 124.997 1182.44 173.879C1125.79 214.189 1092.37 219.835 1027.23 232.496C902.448 256.749 810.079 317.711 712.248 379.386C602.592 448.544 561.802 499.433 468.041 512.563C402.92 521.642 358.859 509.693 334.571 501.196C313.274 493.693 307.25 486.378 239.479 418.082C169.562 347.629 160.652 341.308 147.243 332.961C117.76 314.616 72.634 294.302 3.67895 301.673" stroke="#112C2D" stroke-opacity="0.67" stroke-width="5" stroke-miterlimit="10"/>
<path id="Vector_33" d="M1484 24.5679C1417.4 -5.8379 1370.04 0.633413 1337.48 15.1892C1273.83 43.5879 1261.08 104.793 1189.47 153.994C1138.65 188.92 1105.67 185.131 1039.99 199.012C908.191 226.867 810.375 290.923 706.979 358.45C591.27 434.117 546.854 488.983 447.972 506.634C380.556 518.657 343.822 503.407 323.649 491.628C306.436 481.574 299.968 473.264 230.406 399.716C159.734 324.93 153 319.247 144.564 313.432C116.044 293.756 71.2133 274.604 2.48024 283.42" stroke="#112C2D" stroke-opacity="0.67" stroke-width="5" stroke-miterlimit="10"/>
</g>
</g>
</svg>
