<svg width="1466" height="336" viewBox="0 0 1466 336" fill="none" xmlns="http://www.w3.org/2000/svg">
<path d="M1465.41 7.10635C1406.58 0.48498 1317.91 -3.92301 1224.16 37.5872C1159.89 66.3986 1114.12 108.303 1080.39 135.895C1068.95 145.274 1058.19 155.196 1047.52 164.612C987.639 217.34 947.811 263.07 919.29 294.039C891.865 323.825 874.563 340.032 845.643 330.165C826.684 323.638 808.924 308.688 796.995 294.526C779.575 273.781 776.437 258.4 770.502 241.312C767.542 232.908 765.041 224.749 759.979 217.246C741.212 189.41 712.218 177.33 665.034 174.723C616.193 172.04 554.164 183.839 504.479 203.722C499.872 205.585 495.466 207.461 491.263 209.349C427.355 237.635 414.7 257.687 382.45 262.826C377.185 263.652 371.889 264.122 366.584 264.233C343.792 264.927 324.018 260.482 300.856 252.453C267.466 240.993 238.028 224.036 205.423 208.636C195.418 203.872 184.465 199.089 172.344 194.549C133.715 179.994 76.3188 164.537 0.54073 161.874" stroke="#112C2D" stroke-opacity="0.67" stroke-width="5" stroke-miterlimit="10"/>
</svg>
